<?xml version="1.0" standalone="no"?>
<svg version="1.0" xmlns="http://www.w3.org/2000/svg"
 width="48.000000pt" height="48.000000pt" viewBox="0 0 48.000000 48.000000">
<g transform="translate(0.000000,48.000000) scale(0.100000,-0.100000)" fill="#000000" stroke="0px">
<path d="M185 416 c-182 -84 -104 -398 90 -362 42 8 85 42 85 67 0 25 -18 24
-46 -2 -12 -11 -40 -23 -61 -26 -32 -4 -45 0 -72 23 -61 51 -77 125 -41 199
38 78 114 97 175 44 28 -25 39 -29 48 -20 8 8 9 16 1 28 -32 52 -121 76 -179
49z"/>
</g>
</svg>
