<?xml version="1.0" standalone="no"?>
<!DOCTYPE svg PUBLIC "-//W3C//DTD SVG 20010904//EN"
 "http://www.w3.org/TR/2001/REC-SVG-20010904/DTD/svg10.dtd">
<svg version="1.0" xmlns="http://www.w3.org/2000/svg"
 width="400.000000pt" height="500.000000pt" viewBox="0 0 307.000000 405.000000"
 preserveAspectRatio="xMidYMid meet">

<g transform="translate(0.000000,405.000000) scale(0.100000,-0.100000)"
fill="#000000" stroke="none">
<path d="M373 3953 c3 -5 260 -450 571 -990 l567 -982 -555 -962 c-306 -529
-555 -964 -553 -966 2 -2 535 -2 1184 -1 l1181 3 -480 830 c-263 457 -520 901
-569 987 l-91 157 533 923 c293 508 544 942 557 966 l24 42 -1187 0 c-652 0
-1184 -3 -1182 -7z m2174 -134 c-14 -23 -242 -418 -508 -878 l-483 -837 -474
820 c-261 452 -489 847 -508 879 l-33 57 1015 0 1015 0 -24 -41z m-452 -2797
c273 -475 495 -865 493 -868 -3 -2 -457 -3 -1010 -2 l-1006 3 460 795 c252
437 479 830 504 874 25 43 49 74 53 70 4 -5 232 -397 506 -872z"/>
</g>
</svg>
