<?xml version="1.0" standalone="no"?>
<svg version="1.0" xmlns="http://www.w3.org/2000/svg"
 width="50.000000pt" height="50.000000pt" viewBox="0 0 211.000000 122.000000">
<g transform="translate(0.000000,122.000000) scale(0.100000,-0.100000)" fill="#000000" stroke="none">
<path d="M890 771 c0 -5 23 -30 51 -55 l51 -46 -396 0 -396 0 0 -55 0 -55 396
0 396 0 -51 -46 c-28 -25 -51 -50 -51 -55 0 -5 73 -9 165 -9 92 0 165 4 165 9
0 5 -23 30 -51 55 l-51 46 221 0 221 0 0 -50 c0 -27 3 -50 8 -50 20 1 337 148
336 156 -2 8 -318 153 -336 154 -5 0 -8 -22 -8 -50 l0 -50 -221 0 -221 0 51
46 c28 25 51 50 51 55 0 5 -73 9 -165 9 -92 0 -165 -4 -165 -9z m241 -71 c-38
-38 -72 -70 -75 -70 -3 0 -37 32 -76 70 l-71 70 146 0 145 0 -69 -70z m612
-22 c110 -48 135 -63 122 -71 -21 -12 -285 -127 -291 -127 -2 0 -4 23 -4 50
l0 50 -239 0 c-205 0 -240 2 -252 16 -9 11 -10 20 -2 32 9 15 39 17 252 20
l241 2 0 51 c0 44 2 50 17 45 9 -4 79 -34 156 -68z m-710 -50 c8 -12 7 -21 -2
-32 -12 -14 -61 -16 -417 -16 l-404 0 0 35 0 35 406 -2 c367 -3 408 -5 417
-20z m98 -98 l69 -70 -144 0 -144 0 67 70 c36 38 70 69 74 70 5 0 40 -31 78
-70z"/>
</g>
</svg>
